<?xml version="1.0" standalone="no"?>
<!DOCTYPE svg PUBLIC "-//W3C//DTD SVG 20010904//EN"
 "http://www.w3.org/TR/2001/REC-SVG-20010904/DTD/svg10.dtd">
<svg version="1.0" xmlns="http://www.w3.org/2000/svg"
 width="700.000000pt" height="700.000000pt" viewBox="0 0 700.000000 700.000000"
 preserveAspectRatio="xMidYMid meet">
<metadata>
Created by potrace 1.14, written by Peter Selinger 2001-2017
</metadata>
<g transform="translate(0.000000,700.000000) scale(0.100000,-0.100000)"
fill="#000000" stroke="none">
<path d="M0 3500 l0 -3500 3500 0 3500 0 0 3500 0 3500 -3500 0 -3500 0 0
-3500z m3514 1643 c17 -178 83 -400 175 -588 150 -305 360 -545 645 -736 169
-114 321 -186 519 -245 91 -27 282 -64 333 -64 64 0 42 -17 -29 -24 -435 -38
-915 -295 -1208 -645 -242 -289 -404 -653 -435 -983 -7 -69 -24 -94 -24 -35 0
43 -23 173 -50 277 -117 459 -433 881 -846 1131 -224 135 -521 236 -750 256
-41 3 -71 9 -67 13 4 4 51 12 104 18 433 52 885 300 1171 642 226 270 364 563
424 905 8 44 14 95 14 113 0 58 17 33 24 -35z"/>
</g>
</svg>
